<svg t="1721900485500" class="icon" viewBox="0 0 1024 1024" version="1.1" xmlns="http://www.w3.org/2000/svg"
     p-id="28326" width="256" height="256">
    <path d="M371.2 563.2h281.6c19.2 0 38.4 19.2 38.4 38.4s-19.2 38.4-38.4 38.4H371.2c-19.2 0-38.4-19.2-38.4-38.4s19.2-38.4 38.4-38.4z m0-179.2h281.6c19.2 0 38.4 19.2 38.4 38.4s-19.2 38.4-38.4 38.4H371.2c-19.2 0-38.4-19.2-38.4-38.4s19.2-38.4 38.4-38.4z m-64-179.2c-25.6 0-51.2 25.6-51.2 51.2v512c0 25.6 25.6 51.2 51.2 51.2h409.6c25.6 0 51.2-25.6 51.2-51.2V256c0-25.6-25.6-51.2-51.2-51.2H307.2zM512 0c281.6 0 512 230.4 512 512s-230.4 512-512 512-512-230.4-512-512 230.4-512 512-512z"
          fill="#D80C24" p-id="28327"></path>
</svg>